<svg width="120" height="32" viewBox="0 0 120 32" fill="none" xmlns="http://www.w3.org/2000/svg">
<path d="M32.7426 10.0112C34.4386 10.0112 35.7826 10.4832 36.7746 11.4272C37.7666 12.3552 38.2626 13.6112 38.2626 15.1952C38.2626 15.7072 38.2226 16.1632 38.1426 16.5632C38.0466 17.0432 37.9426 17.4592 37.8306 17.8112H28.1106C28.0946 17.9232 28.0866 18.0832 28.0866 18.2912C28.0866 19.1232 28.3266 19.7792 28.8066 20.2592C29.3026 20.7232 29.9506 20.9552 30.7506 20.9552C31.4226 20.9552 31.9986 20.8112 32.4786 20.5232C32.9746 20.2192 33.3746 19.8272 33.6786 19.3472H37.3026C36.7106 20.6272 35.7906 21.6832 34.5426 22.5152C33.3106 23.3312 31.9106 23.7392 30.3426 23.7392C28.6466 23.7392 27.2866 23.2592 26.2626 22.2992C25.2386 21.3392 24.7266 20.0352 24.7266 18.3872C24.7266 17.9072 24.7746 17.4032 24.8706 16.8752C25.1106 15.4992 25.5986 14.2912 26.3346 13.2512C27.0866 12.2112 28.0146 11.4112 29.1186 10.8512C30.2226 10.2912 31.4306 10.0112 32.7426 10.0112ZM34.8066 15.7712C34.8386 15.5152 34.8546 15.3312 34.8546 15.2192C34.8546 14.4512 34.6066 13.8512 34.1106 13.4192C33.6146 12.9872 32.9666 12.7712 32.1666 12.7712C31.3186 12.7712 30.5586 13.0432 29.8866 13.5872C29.2146 14.1152 28.7426 14.8432 28.4706 15.7712H34.8066Z" fill="black"/>
<path d="M47.2431 16.8512L50.4831 23.5232H46.6911L44.6991 19.4192L41.5311 23.5232H37.9311L43.4511 16.8512L40.2351 10.2272H44.0271L46.0191 14.3312L49.1871 10.2272H52.7871L47.2431 16.8512Z" fill="black"/>
<path d="M57.708 12.1472C58.252 11.5392 58.932 11.0352 59.748 10.6352C60.58 10.2192 61.484 10.0112 62.46 10.0112C63.452 10.0112 64.324 10.2272 65.076 10.6592C65.844 11.0752 66.436 11.6832 66.852 12.4832C67.268 13.2832 67.476 14.2192 67.476 15.2912C67.476 15.7872 67.428 16.2992 67.332 16.8272C67.092 18.1872 66.612 19.3952 65.892 20.4512C65.172 21.4912 64.3 22.2992 63.276 22.8752C62.252 23.4512 61.18 23.7392 60.06 23.7392C59.084 23.7392 58.252 23.5392 57.564 23.1392C56.892 22.7392 56.38 22.2352 56.028 21.6272L54.588 29.8592H51.204L54.66 10.2272H58.044L57.708 12.1472ZM63.9 16.8272C63.948 16.5072 63.972 16.2192 63.972 15.9632C63.972 15.0192 63.7 14.2832 63.156 13.7552C62.612 13.2272 61.916 12.9632 61.068 12.9632C60.46 12.9632 59.86 13.1232 59.268 13.4432C58.676 13.7472 58.164 14.1952 57.732 14.7872C57.3 15.3792 57.012 16.0752 56.868 16.8752C56.804 17.2912 56.772 17.5952 56.772 17.7872C56.772 18.7312 57.044 19.4672 57.588 19.9952C58.148 20.5232 58.844 20.7872 59.676 20.7872C60.3 20.7872 60.908 20.6272 61.5 20.3072C62.092 19.9872 62.604 19.5312 63.036 18.9392C63.468 18.3472 63.756 17.6432 63.9 16.8272Z" fill="black"/>
<path d="M76.7816 10.0112C78.4776 10.0112 79.8216 10.4832 80.8136 11.4272C81.8056 12.3552 82.3016 13.6112 82.3016 15.1952C82.3016 15.7072 82.2616 16.1632 82.1816 16.5632C82.0856 17.0432 81.9816 17.4592 81.8696 17.8112H72.1496C72.1336 17.9232 72.1256 18.0832 72.1256 18.2912C72.1256 19.1232 72.3656 19.7792 72.8456 20.2592C73.3416 20.7232 73.9896 20.9552 74.7896 20.9552C75.4616 20.9552 76.0376 20.8112 76.5176 20.5232C77.0136 20.2192 77.4136 19.8272 77.7176 19.3472H81.3416C80.7496 20.6272 79.8296 21.6832 78.5816 22.5152C77.3496 23.3312 75.9496 23.7392 74.3816 23.7392C72.6856 23.7392 71.3256 23.2592 70.3016 22.2992C69.2776 21.3392 68.7656 20.0352 68.7656 18.3872C68.7656 17.9072 68.8136 17.4032 68.9096 16.8752C69.1496 15.4992 69.6376 14.2912 70.3736 13.2512C71.1256 12.2112 72.0536 11.4112 73.1576 10.8512C74.2616 10.2912 75.4696 10.0112 76.7816 10.0112ZM78.8456 15.7712C78.8776 15.5152 78.8936 15.3312 78.8936 15.2192C78.8936 14.4512 78.6456 13.8512 78.1496 13.4192C77.6536 12.9872 77.0056 12.7712 76.2056 12.7712C75.3576 12.7712 74.5976 13.0432 73.9256 13.5872C73.2536 14.1152 72.7816 14.8432 72.5096 15.7712H78.8456Z" fill="black"/>
<path d="M88.7141 12.5792C89.2901 11.7792 89.9621 11.1552 90.7301 10.7072C91.4981 10.2592 92.3301 10.0352 93.2261 10.0352L92.6021 13.5632H91.7141C90.7221 13.5632 89.9221 13.7792 89.3141 14.2112C88.7221 14.6432 88.2901 15.3792 88.0181 16.4192L86.7701 23.5232H83.3861L85.7381 10.2272H89.1221L88.7141 12.5792Z" fill="black"/>
<path d="M98.4173 12.5792C98.9933 11.7792 99.6653 11.1552 100.433 10.7072C101.201 10.2592 102.033 10.0352 102.929 10.0352L102.305 13.5632H101.417C100.425 13.5632 99.6253 13.7792 99.0173 14.2112C98.4253 14.6432 97.9933 15.3792 97.7213 16.4192L96.4733 23.5232H93.0892L95.4413 10.2272H98.8252L98.4173 12.5792Z" fill="black"/>
<path d="M108.744 23.7392C107.608 23.7392 106.6 23.5072 105.72 23.0432C104.856 22.5792 104.184 21.9232 103.704 21.0752C103.224 20.2272 102.984 19.2512 102.984 18.1472C102.984 16.6432 103.336 15.2752 104.04 14.0432C104.76 12.7952 105.736 11.8112 106.968 11.0912C108.216 10.3712 109.6 10.0112 111.12 10.0112C112.256 10.0112 113.264 10.2512 114.144 10.7312C115.04 11.1952 115.728 11.8512 116.208 12.6992C116.704 13.5472 116.952 14.5232 116.952 15.6272C116.952 17.1472 116.592 18.5232 115.872 19.7552C115.152 20.9872 114.16 21.9632 112.896 22.6832C111.648 23.3872 110.264 23.7392 108.744 23.7392ZM109.2 20.8592C110 20.8592 110.728 20.6272 111.384 20.1632C112.04 19.6992 112.552 19.0832 112.92 18.3152C113.288 17.5472 113.472 16.7392 113.472 15.8912C113.472 14.9312 113.2 14.1952 112.656 13.6832C112.128 13.1552 111.456 12.8912 110.64 12.8912C109.824 12.8912 109.096 13.1232 108.456 13.5872C107.832 14.0512 107.344 14.6752 106.992 15.4592C106.64 16.2272 106.464 17.0432 106.464 17.9072C106.464 18.8512 106.712 19.5792 107.208 20.0912C107.72 20.6032 108.384 20.8592 109.2 20.8592Z" fill="black"/>
<path fill-rule="evenodd" clip-rule="evenodd" d="M20.7262 2.76614C17.9751 1.39148 14.616 2.35327 13.0126 4.97471L3.04297 21.2752L3.52537 21.3047C6.30111 21.4749 8.92864 19.9408 10.6054 17.7308C11.3369 16.7666 13.141 16.4927 14.9801 16.4977C18.0169 16.506 21.0505 15.1991 22.4807 12.533L23.4443 10.407C24.743 7.5414 23.5454 4.17483 20.7262 2.76614ZM19.012 7.91355C19.7331 7.94138 20.3398 7.37936 20.3672 6.65822C20.3945 5.93709 19.8321 5.32993 19.111 5.30209C18.3899 5.27425 17.7831 5.83628 17.7558 6.55741C17.7284 7.27855 18.2909 7.88571 19.012 7.91355Z" fill="#4F46E5"/>
<path d="M27.3864 7.96602C25.5814 8.12202 24.7996 8.58827 23.653 9.82837V6.09503C25.474 6.23655 26.2336 6.74225 27.3864 7.96602Z" fill="#4F46E5"/>
<path d="M7.95946 5.00554C8.51481 6.30294 10.3125 7.38513 11.8743 6.97911L9.14177 11.4727C8.27556 10.7025 7.18774 7.96972 7.95946 5.00554Z" fill="#4F46E5"/>
</svg>
