<svg width="20" height="20" viewBox="0 0 20 20" fill="none" xmlns="http://www.w3.org/2000/svg">
<path fill-rule="evenodd" clip-rule="evenodd" d="M14.3072 2.99758C12.1579 1.92362 9.53358 2.67502 8.28099 4.72302L0.492188 17.4578L0.869062 17.4809C3.03761 17.6138 5.09036 16.4153 6.40036 14.6887C6.97185 13.9355 8.38128 13.7215 9.81803 13.7254C12.1906 13.7318 14.5606 12.7108 15.6779 10.628L16.4307 8.967C17.4453 6.72825 16.5097 4.09812 14.3072 2.99758ZM12.968 7.01899C13.5313 7.04074 14.0054 6.60165 14.0267 6.03827C14.0481 5.47488 13.6087 5.00054 13.0453 4.97879C12.482 4.95704 12.0079 5.39613 11.9866 5.95951C11.9652 6.5229 12.4046 6.99724 12.968 7.01899Z" fill="#4F46E5"/>
<path d="M19.5103 7.05997C18.1002 7.18185 17.4893 7.54611 16.5936 8.51493V5.59827C18.0162 5.70882 18.6097 6.10391 19.5103 7.05997Z" fill="#4F46E5"/>
<path d="M4.33298 4.7471C4.76685 5.7607 6.1713 6.60615 7.39148 6.28895L5.25666 9.79957C4.57993 9.19784 3.73008 7.06287 4.33298 4.7471Z" fill="#4F46E5"/>
</svg>
